grf
version=1
nRows=16
nColumns=46
inDegrees=yes
endheader
time	ground_force_1_vx	ground_force_1_vy	ground_force_1_vz	ground_force_1_px	ground_force_1_py	ground_force_1_pz	ground_moment_1_mx	ground_moment_1_my	ground_moment_1_mz	ground_force_2_vx	ground_force_2_vy	ground_force_2_vz	ground_force_2_px	ground_force_2_py	ground_force_2_pz	ground_moment_2_mx	ground_moment_2_my	ground_moment_2_mz	ground_force_3_vx	ground_force_3_vy	ground_force_3_vz	ground_force_3_px	ground_force_3_py	ground_force_3_pz	ground_moment_3_mx	ground_moment_3_my	ground_moment_3_mz	ground_force_4_vx	ground_force_4_vy	ground_force_4_vz	ground_force_4_px	ground_force_4_py	ground_force_4_pz	ground_moment_4_mx	ground_moment_4_my	ground_moment_4_mz	ground_force_5_vx	ground_force_5_vy	ground_force_5_vz	ground_force_5_px	ground_force_5_py	ground_force_5_pz	ground_moment_5_mx	ground_moment_5_my	ground_moment_5_mz
1.908500	0.000000	0.000000	0.000000	0.000000	0.000000	0.000000	0.000000	0.000000	0.000000	0.000000	0.000000	0.000000	0.000000	0.000000	0.000000	0.000000	0.000000	0.000000	0.000000	0.000000	0.000000	0.000000	0.000000	0.000000	0.000000	0.000000	0.000000	-3.239255	467.390920	-10.201413	0.204302	0.000000	-1.075342	0.000000	6.531509	0.000000	-3.907463	409.936827	5.279400	0.221505	0.000000	-1.402323	-0.000000	-5.540166	-0.000000
1.909000	0.000000	0.000000	0.000000	0.000000	0.000000	0.000000	0.000000	0.000000	0.000000	0.000000	0.000000	0.000000	0.000000	0.000000	0.000000	0.000000	0.000000	0.000000	0.000000	0.000000	0.000000	0.000000	0.000000	0.000000	0.000000	0.000000	0.000000	-3.196712	467.410487	-10.199544	0.204256	0.000000	-1.075359	0.000000	6.528356	0.000000	-3.855868	409.818060	5.253253	0.221457	0.000000	-1.402314	-0.000000	-5.537963	-0.000000
1.909500	0.000000	0.000000	0.000000	0.000000	0.000000	0.000000	0.000000	0.000000	0.000000	0.000000	0.000000	0.000000	0.000000	0.000000	0.000000	0.000000	0.000000	0.000000	0.000000	0.000000	0.000000	0.000000	0.000000	0.000000	0.000000	0.000000	0.000000	-3.154635	467.433545	-10.197998	0.204209	0.000000	-1.075375	0.000000	6.525247	0.000000	-3.802896	409.702921	5.226566	0.221409	0.000000	-1.402305	-0.000000	-5.535824	-0.000000
1.910000	0.000000	0.000000	0.000000	0.000000	0.000000	0.000000	0.000000	0.000000	0.000000	0.000000	0.000000	0.000000	0.000000	0.000000	0.000000	0.000000	0.000000	0.000000	0.000000	0.000000	0.000000	0.000000	0.000000	0.000000	0.000000	0.000000	0.000000	-3.113111	467.460303	-10.196796	0.204162	0.000000	-1.075392	0.000000	6.522190	0.000000	-3.748581	409.591402	5.199341	0.221361	0.000000	-1.402296	-0.000000	-5.533748	-0.000000
1.910500	0.000000	0.000000	0.000000	0.000000	0.000000	0.000000	0.000000	0.000000	0.000000	0.000000	0.000000	0.000000	0.000000	0.000000	0.000000	0.000000	0.000000	0.000000	0.000000	0.000000	0.000000	0.000000	0.000000	0.000000	0.000000	0.000000	0.000000	-3.072228	467.490973	-10.195965	0.204115	0.000000	-1.075408	0.000000	6.519189	0.000000	-3.692953	409.483503	5.171584	0.221312	0.000000	-1.402287	-0.000000	-5.531738	-0.000000
1.911000	0.000000	0.000000	0.000000	0.000000	0.000000	0.000000	0.000000	0.000000	0.000000	0.000000	0.000000	0.000000	0.000000	0.000000	0.000000	0.000000	0.000000	0.000000	0.000000	0.000000	0.000000	0.000000	0.000000	0.000000	0.000000	0.000000	0.000000	-3.032073	467.525768	-10.195534	0.204068	0.000000	-1.075424	0.000000	6.516249	0.000000	-3.636045	409.379225	5.143303	0.221263	0.000000	-1.402278	-0.000000	-5.529798	-0.000000
1.911500	0.000000	0.000000	0.000000	0.000000	0.000000	0.000000	0.000000	0.000000	0.000000	0.000000	0.000000	0.000000	0.000000	0.000000	0.000000	0.000000	0.000000	0.000000	0.000000	0.000000	0.000000	0.000000	0.000000	0.000000	0.000000	0.000000	0.000000	-2.992736	467.564892	-10.195534	0.204021	0.000000	-1.075441	0.000000	6.513373	0.000000	-3.577888	409.278564	5.114510	0.221213	0.000000	-1.402269	-0.000000	-5.527931	-0.000000
1.912000	0.000000	0.000000	0.000000	0.000000	0.000000	0.000000	0.000000	0.000000	0.000000	0.000000	0.000000	0.000000	0.000000	0.000000	0.000000	0.000000	0.000000	0.000000	0.000000	0.000000	0.000000	0.000000	0.000000	0.000000	0.000000	0.000000	0.000000	-2.954309	467.608541	-10.195993	0.203973	0.000000	-1.075457	0.000000	6.510562	0.000000	-3.518512	409.181506	5.085220	0.221163	0.000000	-1.402260	-0.000000	-5.526139	-0.000000
1.912500	0.000000	0.000000	0.000000	0.000000	0.000000	0.000000	0.000000	0.000000	0.000000	0.000000	0.000000	0.000000	0.000000	0.000000	0.000000	0.000000	0.000000	0.000000	0.000000	0.000000	0.000000	0.000000	0.000000	0.000000	0.000000	0.000000	0.000000	-2.916880	467.656901	-10.196941	0.203926	0.000000	-1.075473	0.000000	6.507814	0.000000	-3.457948	409.088032	5.055450	0.221112	0.000000	-1.402250	-0.000000	-5.524425	-0.000000
1.913000	0.000000	0.000000	0.000000	0.000000	0.000000	0.000000	0.000000	0.000000	0.000000	0.000000	0.000000	0.000000	0.000000	0.000000	0.000000	0.000000	0.000000	0.000000	0.000000	0.000000	0.000000	0.000000	0.000000	0.000000	0.000000	0.000000	0.000000	-2.880529	467.710149	-10.198407	0.203878	0.000000	-1.075489	0.000000	6.505129	0.000000	-3.396228	408.998111	5.025219	0.221062	0.000000	-1.402240	-0.000000	-5.522790	-0.000000
1.913500	0.000000	0.000000	0.000000	0.000000	0.000000	0.000000	0.000000	0.000000	0.000000	0.000000	0.000000	0.000000	0.000000	0.000000	0.000000	0.000000	0.000000	0.000000	0.000000	0.000000	0.000000	0.000000	0.000000	0.000000	0.000000	0.000000	0.000000	-2.845325	467.768453	-10.200424	0.203831	0.000000	-1.075505	0.000000	6.502505	0.000000	-3.333387	408.911698	4.994547	0.221010	0.000000	-1.402229	-0.000000	-5.521235	-0.000000
1.914000	0.000000	0.000000	0.000000	0.000000	0.000000	0.000000	0.000000	0.000000	0.000000	0.000000	0.000000	0.000000	0.000000	0.000000	0.000000	0.000000	0.000000	0.000000	0.000000	0.000000	0.000000	0.000000	0.000000	0.000000	0.000000	0.000000	0.000000	-2.811331	467.831969	-10.203021	0.203783	0.000000	-1.075520	0.000000	6.499941	0.000000	-3.269464	408.828734	4.963452	0.220958	0.000000	-1.402218	-0.000000	-5.519761	-0.000000
1.914500	0.000000	0.000000	0.000000	0.000000	0.000000	0.000000	0.000000	0.000000	0.000000	0.000000	0.000000	0.000000	0.000000	0.000000	0.000000	0.000000	0.000000	0.000000	0.000000	0.000000	0.000000	0.000000	0.000000	0.000000	0.000000	0.000000	0.000000	-2.778597	467.900847	-10.206223	0.203736	0.000000	-1.075536	0.000000	6.497440	0.000000	-3.204502	408.749140	4.931951	0.220906	0.000000	-1.402207	-0.000000	-5.518371	-0.000000
1.915000	0.000000	0.000000	0.000000	0.000000	0.000000	0.000000	0.000000	0.000000	0.000000	0.000000	0.000000	0.000000	0.000000	0.000000	0.000000	0.000000	0.000000	0.000000	0.000000	0.000000	0.000000	0.000000	0.000000	0.000000	0.000000	0.000000	0.000000	-2.747165	467.975226	-10.210051	0.203688	0.000000	-1.075551	0.000000	6.495007	0.000000	-3.138544	408.672837	4.900060	0.220854	0.000000	-1.402195	-0.000000	-5.517063	-0.000000
1.915500	0.000000	0.000000	0.000000	0.000000	0.000000	0.000000	0.000000	0.000000	0.000000	0.000000	0.000000	0.000000	0.000000	0.000000	0.000000	0.000000	0.000000	0.000000	0.000000	0.000000	0.000000	0.000000	0.000000	0.000000	0.000000	0.000000	0.000000	-2.717066	468.055224	-10.214512	0.203640	0.000000	-1.075566	0.000000	6.492649	0.000000	-3.071633	408.599737	4.867795	0.220801	0.000000	-1.402182	-0.000000	-5.515841	-0.000000
1.916000	0.000000	0.000000	0.000000	0.000000	0.000000	0.000000	0.000000	0.000000	0.000000	0.000000	0.000000	0.000000	0.000000	0.000000	0.000000	0.000000	0.000000	0.000000	0.000000	0.000000	0.000000	0.000000	0.000000	0.000000	0.000000	0.000000	0.000000	-2.688330	468.140934	-10.219606	0.203592	0.000000	-1.075581	0.000000	6.490370	0.000000	-3.003808	408.529756	4.835171	0.220747	0.000000	-1.402169	-0.000000	-5.514703	-0.000000
